<svg width="24" height="24" viewBox="0 0 24 24" fill="none" xmlns="http://www.w3.org/2000/svg">
<path fill-rule="evenodd" clip-rule="evenodd" d="M7.11111 5.88889C7.11111 4.59227 7.62619 3.34877 8.54303 2.43192C9.45988 1.51508 10.7034 1 12 1C13.2966 1 14.5401 1.51508 15.457 2.43192C16.3738 3.34877 16.8889 4.59227 16.8889 5.88889C16.8889 7.1855 16.3738 8.42901 15.457 9.34586C14.5401 10.2627 13.2966 10.7778 12 10.7778C10.7034 10.7778 9.45988 10.2627 8.54303 9.34586C7.62619 8.42901 7.11111 7.1855 7.11111 5.88889ZM7.11111 13.2222C5.49034 13.2222 3.93596 13.8661 2.7899 15.0121C1.64385 16.1582 1 17.7126 1 19.3333C1 20.3058 1.38631 21.2384 2.07394 21.9261C2.76158 22.6137 3.69421 23 4.66667 23H19.3333C20.3058 23 21.2384 22.6137 21.9261 21.9261C22.6137 21.2384 23 20.3058 23 19.3333C23 17.7126 22.3562 16.1582 21.2101 15.0121C20.064 13.8661 18.5097 13.2222 16.8889 13.2222H7.11111Z" fill="#00E676"/>
</svg>
