<svg width="32" height="32" viewBox="0 0 32 32" fill="none" xmlns="http://www.w3.org/2000/svg">
<path d="M7.60019 11.167C8.73353 10.567 9.90597 10.1114 11.1175 9.80033C12.3291 9.48921 13.5678 9.33366 14.8335 9.33366C15.5002 9.33366 16.1615 9.3781 16.8175 9.46699C17.4735 9.55588 18.1233 9.68921 18.7669 9.86699C19.878 10.1781 20.7282 10.3892 21.3175 10.5003C21.9069 10.6114 22.5344 10.667 23.2002 10.667H24.4335L25.0002 5.33366H7.0002L7.60019 11.167ZM9.3002 29.3337C8.61131 29.3337 8.01708 29.1114 7.51753 28.667C7.01797 28.2225 6.73442 27.6559 6.66686 26.967L4.36686 5.96699C4.25575 5.0781 4.5002 4.3061 5.1002 3.65099C5.7002 2.99588 6.44464 2.66788 7.33353 2.66699H24.6669C25.5558 2.66699 26.3002 2.99499 26.9002 3.65099C27.5002 4.30699 27.7446 5.07899 27.6335 5.96699L25.3335 26.967C25.2669 27.6559 24.9833 28.2225 24.4829 28.667C23.9824 29.1114 23.3882 29.3337 22.7002 29.3337H9.3002Z" fill="#00E676"/>
</svg>
