<svg width="24" height="24" viewBox="0 0 24 24" fill="none" xmlns="http://www.w3.org/2000/svg">
<path d="M13.1498 16.15L9.5248 12.525C9.44147 12.4416 9.38314 12.3583 9.3498 12.275C9.31647 12.1916 9.2998 12.1 9.2998 12C9.2998 11.9 9.31647 11.8083 9.3498 11.725C9.38314 11.6416 9.44147 11.5583 9.5248 11.475L13.1498 7.84995C13.1998 7.79995 13.2541 7.76262 13.3128 7.73795C13.3715 7.71328 13.4338 7.70062 13.4998 7.69995C13.6331 7.69995 13.7498 7.74595 13.8498 7.83795C13.9498 7.92995 13.9998 8.05062 13.9998 8.19995V15.8C13.9998 15.95 13.9498 16.071 13.8498 16.163C13.7498 16.255 13.6331 16.3006 13.4998 16.3C13.4665 16.3 13.3498 16.25 13.1498 16.15Z" fill="white"/>
</svg>
