<svg width="24" height="24" viewBox="0 0 24 24" fill="none" xmlns="http://www.w3.org/2000/svg">
<path d="M10.8502 7.85005L14.4752 11.475C14.5585 11.5584 14.6169 11.6417 14.6502 11.725C14.6835 11.8084 14.7002 11.9 14.7002 12C14.7002 12.1 14.6835 12.1917 14.6502 12.275C14.6169 12.3584 14.5585 12.4417 14.4752 12.525L10.8502 16.15C10.8002 16.2 10.7459 16.2374 10.6872 16.262C10.6285 16.2867 10.5662 16.2994 10.5002 16.3C10.3669 16.3 10.2502 16.254 10.1502 16.162C10.0502 16.07 10.0002 15.9494 10.0002 15.8L10.0002 8.20005C10.0002 8.05005 10.0502 7.92905 10.1502 7.83705C10.2502 7.74505 10.3669 7.69938 10.5002 7.70005C10.5335 7.70005 10.6502 7.75005 10.8502 7.85005Z" fill="white"/>
</svg>
