<svg width="862" height="302" viewBox="0 0 862 302" fill="none" xmlns="http://www.w3.org/2000/svg">
<path d="M632 0C654.091 0 672 17.9086 672 40V262C672 284.091 654.091 302 632 302H502.58V203.871H359.42V302H230C207.909 302 190 284.091 190 262V40C190 17.9086 207.909 0 230 0H359.42V97.2829H502.58V0H632Z" fill="#00E676"/>
<path d="M86 58C86 46.9543 94.9543 38 106 38H130C141.046 38 150 46.9543 150 58V244C150 255.046 141.046 264 130 264H106C94.9543 264 86 255.046 86 244V58Z" fill="#00E676"/>
<path d="M712 58C712 46.9543 720.954 38 732 38H756C767.046 38 776 46.9543 776 58V244C776 255.046 767.046 264 756 264H732C720.954 264 712 255.046 712 244V58Z" fill="#00E676"/>
<path d="M0 101C0 89.9543 8.95431 81 20 81H26C37.0457 81 46 89.9543 46 101V201C46 212.046 37.0457 221 26 221H20C8.95431 221 0 212.046 0 201V101Z" fill="#00E676"/>
<path d="M816 101C816 89.9543 824.954 81 836 81H842C853.046 81 862 89.9543 862 101V201C862 212.046 853.046 221 842 221H836C824.954 221 816 212.046 816 201V101Z" fill="#00E676"/>
</svg>
