<svg width="24" height="24" viewBox="0 0 24 24" fill="none" xmlns="http://www.w3.org/2000/svg">
<path d="M2 20.4375V9.1875C2 8.79167 2.08875 8.41667 2.26625 8.0625C2.44375 7.70833 2.68833 7.41667 3 7.1875L10.5 1.5625C10.9375 1.22917 11.4375 1.0625 12 1.0625C12.5625 1.0625 13.0625 1.22917 13.5 1.5625L21 7.1875C21.3125 7.41667 21.5575 7.70833 21.735 8.0625C21.9125 8.41667 22.0008 8.79167 22 9.1875V20.4375C22 21.125 21.755 21.7137 21.265 22.2037C20.775 22.6937 20.1867 22.9383 19.5 22.9375H15.75C15.3958 22.9375 15.0992 22.8175 14.86 22.5775C14.6208 22.3375 14.5008 22.0408 14.5 21.6875V15.4375C14.5 15.0833 14.38 14.7867 14.14 14.5475C13.9 14.3083 13.6033 14.1883 13.25 14.1875H10.75C10.3958 14.1875 10.0992 14.3075 9.86 14.5475C9.62083 14.7875 9.50083 15.0842 9.5 15.4375V21.6875C9.5 22.0417 9.38 22.3387 9.14 22.5787C8.9 22.8187 8.60333 22.9383 8.25 22.9375H4.5C3.8125 22.9375 3.22417 22.6929 2.735 22.2037C2.24583 21.7146 2.00083 21.1258 2 20.4375Z" fill="#00E676"/>
</svg>
