<svg width="24" height="24" viewBox="0 0 24 24" fill="none" xmlns="http://www.w3.org/2000/svg">
<g clip-path="url(#clip0_418_1836)">
<path d="M18.7042 12.7495C18.6763 9.71283 21.2423 8.25489 21.3556 8.18731C19.9137 6.12405 17.6655 5.83648 16.868 5.80197C14.9538 5.61362 13.1322 6.90478 12.1641 6.90478C11.196 6.90478 9.69518 5.83361 8.11201 5.8638C6.0227 5.89112 4.10407 7.05 3.02851 8.86883C0.862692 12.541 2.47234 17.9846 4.58667 20.9623C5.61661 22.4202 6.84518 24.0579 8.45925 23.999C10.0174 23.94 10.6059 23.0169 12.4863 23.0169C14.3667 23.0169 14.8949 23.999 16.5413 23.9745C18.2143 23.94 19.2751 22.4821 20.2962 21.0241C21.4792 19.3318 21.9706 17.6941 21.9986 17.6079C21.9618 17.5949 18.7351 16.3843 18.7028 12.7495H18.7042Z" fill="white"/>
<path d="M15.6095 3.83034C16.4688 2.81668 17.0471 1.40474 16.8881 0C15.6537 0.0460101 14.1573 0.806614 13.2731 1.81596C12.4771 2.71747 11.7782 4.15816 11.968 5.53271C13.3437 5.6348 14.7547 4.84687 15.6095 3.83034Z" fill="white"/>
</g>
<defs>
<clipPath id="clip0_418_1836">
<rect width="20" height="24" fill="white" transform="translate(2)"/>
</clipPath>
</defs>
</svg>
