<svg width="24" height="24" viewBox="0 0 24 24" fill="none" xmlns="http://www.w3.org/2000/svg">
<path d="M4.5 20.4492H8.25V14.1907C8.25 13.8361 8.37 13.539 8.61 13.2995C8.85 13.06 9.14667 12.9398 9.5 12.939H14.5C14.8542 12.939 15.1512 13.0592 15.3912 13.2995C15.6312 13.5398 15.7508 13.8369 15.75 14.1907V20.4492H19.5V9.18391L12 3.55125L4.5 9.18391V20.4492ZM2 20.4492V9.18391C2 8.78753 2.08875 8.41202 2.26625 8.05737C2.44375 7.70273 2.68833 7.41066 3 7.18118L10.5 1.54853C10.9375 1.21475 11.4375 1.04785 12 1.04785C12.5625 1.04785 13.0625 1.21475 13.5 1.54853L21 7.18118C21.3125 7.41066 21.5575 7.70273 21.735 8.05737C21.9125 8.41202 22.0008 8.78753 22 9.18391V20.4492C22 21.1376 21.755 21.7272 21.265 22.2179C20.775 22.7085 20.1867 22.9534 19.5 22.9526H14.5C14.1458 22.9526 13.8492 22.8324 13.61 22.5921C13.3708 22.3518 13.2508 22.0547 13.25 21.7009V15.4424H10.75V21.7009C10.75 22.0556 10.63 22.353 10.39 22.5934C10.15 22.8337 9.85333 22.9534 9.5 22.9526H4.5C3.8125 22.9526 3.22417 22.7077 2.735 22.2179C2.24583 21.728 2.00083 21.1385 2 20.4492Z" fill="#606060"/>
</svg>
