<svg width="24" height="24" viewBox="0 0 24 24" fill="none" xmlns="http://www.w3.org/2000/svg">
<path d="M22.5 5.99993C22.5 5.20428 22.1839 4.44122 21.6213 3.87861C21.0587 3.316 20.2956 2.99993 19.5 2.99993H18.75V2.27103C18.75 1.86743 18.4397 1.52103 18.0361 1.50087C17.9347 1.49598 17.8333 1.51174 17.7382 1.54717C17.6431 1.58261 17.5561 1.637 17.4826 1.70704C17.4091 1.77707 17.3506 1.8613 17.3106 1.95462C17.2706 2.04794 17.25 2.14841 17.25 2.24993V2.99993H6.75V2.27103C6.75 1.86743 6.43969 1.52103 6.03609 1.50087C5.93469 1.49598 5.83334 1.51174 5.7382 1.54717C5.64307 1.58261 5.55611 1.637 5.48261 1.70704C5.40911 1.77707 5.3506 1.8613 5.31062 1.95462C5.27063 2.04794 5.25001 2.14841 5.25 2.24993V2.99993H4.5C3.70435 2.99993 2.94129 3.316 2.37868 3.87861C1.81607 4.44122 1.5 5.20428 1.5 5.99993V6.56243C1.5 6.61216 1.51975 6.65985 1.55492 6.69501C1.59008 6.73018 1.63777 6.74993 1.6875 6.74993H22.3125C22.3622 6.74993 22.4099 6.73018 22.4451 6.69501C22.4802 6.65985 22.5 6.61216 22.5 6.56243V5.99993ZM1.5 19.4999C1.5 20.2956 1.81607 21.0586 2.37868 21.6213C2.94129 22.1839 3.70435 22.4999 4.5 22.4999H19.5C20.2956 22.4999 21.0587 22.1839 21.6213 21.6213C22.1839 21.0586 22.5 20.2956 22.5 19.4999V8.39056C22.5 8.35326 22.4852 8.31749 22.4588 8.29112C22.4324 8.26475 22.3967 8.24993 22.3594 8.24993H1.64062C1.60333 8.24993 1.56756 8.26475 1.54119 8.29112C1.51482 8.31749 1.5 8.35326 1.5 8.39056V19.4999ZM17.625 9.74993C17.8475 9.74993 18.065 9.81591 18.25 9.93953C18.435 10.0631 18.5792 10.2388 18.6644 10.4444C18.7495 10.65 18.7718 10.8762 18.7284 11.0944C18.685 11.3126 18.5778 11.5131 18.4205 11.6704C18.2632 11.8278 18.0627 11.9349 17.8445 11.9783C17.6262 12.0217 17.4 11.9994 17.1945 11.9143C16.9889 11.8291 16.8132 11.685 16.6896 11.4999C16.566 11.3149 16.5 11.0974 16.5 10.8749C16.5 10.5766 16.6185 10.2904 16.8295 10.0794C17.0405 9.86846 17.3266 9.74993 17.625 9.74993ZM17.625 13.4999C17.8475 13.4999 18.065 13.5659 18.25 13.6895C18.435 13.8131 18.5792 13.9888 18.6644 14.1944C18.7495 14.4 18.7718 14.6262 18.7284 14.8444C18.685 15.0626 18.5778 15.2631 18.4205 15.4204C18.2632 15.5778 18.0627 15.6849 17.8445 15.7283C17.6262 15.7717 17.4 15.7494 17.1945 15.6643C16.9889 15.5791 16.8132 15.435 16.6896 15.2499C16.566 15.0649 16.5 14.8474 16.5 14.6249C16.5 14.3266 16.6185 14.0404 16.8295 13.8294C17.0405 13.6185 17.3266 13.4999 17.625 13.4999ZM13.875 9.74993C14.0975 9.74993 14.315 9.81591 14.5 9.93953C14.685 10.0631 14.8292 10.2388 14.9144 10.4444C14.9995 10.65 15.0218 10.8762 14.9784 11.0944C14.935 11.3126 14.8278 11.5131 14.6705 11.6704C14.5132 11.8278 14.3127 11.9349 14.0945 11.9783C13.8762 12.0217 13.65 11.9994 13.4445 11.9143C13.2389 11.8291 13.0632 11.685 12.9396 11.4999C12.816 11.3149 12.75 11.0974 12.75 10.8749C12.75 10.5766 12.8685 10.2904 13.0795 10.0794C13.2905 9.86846 13.5766 9.74993 13.875 9.74993ZM13.875 13.4999C14.0975 13.4999 14.315 13.5659 14.5 13.6895C14.685 13.8131 14.8292 13.9888 14.9144 14.1944C14.9995 14.4 15.0218 14.6262 14.9784 14.8444C14.935 15.0626 14.8278 15.2631 14.6705 15.4204C14.5132 15.5778 14.3127 15.6849 14.0945 15.7283C13.8762 15.7717 13.65 15.7494 13.4445 15.6643C13.2389 15.5791 13.0632 15.435 12.9396 15.2499C12.816 15.0649 12.75 14.8474 12.75 14.6249C12.75 14.3266 12.8685 14.0404 13.0795 13.8294C13.2905 13.6185 13.5766 13.4999 13.875 13.4999ZM13.875 17.2499C14.0975 17.2499 14.315 17.3159 14.5 17.4395C14.685 17.5631 14.8292 17.7388 14.9144 17.9444C14.9995 18.15 15.0218 18.3762 14.9784 18.5944C14.935 18.8126 14.8278 19.0131 14.6705 19.1704C14.5132 19.3278 14.3127 19.4349 14.0945 19.4783C13.8762 19.5217 13.65 19.4994 13.4445 19.4143C13.2389 19.3291 13.0632 19.185 12.9396 18.9999C12.816 18.8149 12.75 18.5974 12.75 18.3749C12.75 18.0766 12.8685 17.7904 13.0795 17.5794C13.2905 17.3685 13.5766 17.2499 13.875 17.2499ZM10.125 13.4999C10.3475 13.4999 10.565 13.5659 10.75 13.6895C10.935 13.8131 11.0792 13.9888 11.1644 14.1944C11.2495 14.4 11.2718 14.6262 11.2284 14.8444C11.185 15.0626 11.0778 15.2631 10.9205 15.4204C10.7632 15.5778 10.5627 15.6849 10.3445 15.7283C10.1262 15.7717 9.90005 15.7494 9.69448 15.6643C9.48891 15.5791 9.31321 15.435 9.1896 15.2499C9.06598 15.0649 9 14.8474 9 14.6249C9 14.3266 9.11853 14.0404 9.3295 13.8294C9.54048 13.6185 9.82663 13.4999 10.125 13.4999ZM10.125 17.2499C10.3475 17.2499 10.565 17.3159 10.75 17.4395C10.935 17.5631 11.0792 17.7388 11.1644 17.9444C11.2495 18.15 11.2718 18.3762 11.2284 18.5944C11.185 18.8126 11.0778 19.0131 10.9205 19.1704C10.7632 19.3278 10.5627 19.4349 10.3445 19.4783C10.1262 19.5217 9.90005 19.4994 9.69448 19.4143C9.48891 19.3291 9.31321 19.185 9.1896 18.9999C9.06598 18.8149 9 18.5974 9 18.3749C9 18.0766 9.11853 17.7904 9.3295 17.5794C9.54048 17.3685 9.82663 17.2499 10.125 17.2499ZM6.375 13.4999C6.5975 13.4999 6.81501 13.5659 7.00002 13.6895C7.18502 13.8131 7.32922 13.9888 7.41436 14.1944C7.49951 14.4 7.52179 14.6262 7.47838 14.8444C7.43498 15.0626 7.32783 15.2631 7.1705 15.4204C7.01316 15.5778 6.81271 15.6849 6.59448 15.7283C6.37625 15.7717 6.15005 15.7494 5.94448 15.6643C5.73891 15.5791 5.56321 15.435 5.4396 15.2499C5.31598 15.0649 5.25 14.8474 5.25 14.6249C5.25 14.3266 5.36853 14.0404 5.5795 13.8294C5.79048 13.6185 6.07663 13.4999 6.375 13.4999ZM6.375 17.2499C6.5975 17.2499 6.81501 17.3159 7.00002 17.4395C7.18502 17.5631 7.32922 17.7388 7.41436 17.9444C7.49951 18.15 7.52179 18.3762 7.47838 18.5944C7.43498 18.8126 7.32783 19.0131 7.1705 19.1704C7.01316 19.3278 6.81271 19.4349 6.59448 19.4783C6.37625 19.5217 6.15005 19.4994 5.94448 19.4143C5.73891 19.3291 5.56321 19.185 5.4396 18.9999C5.31598 18.8149 5.25 18.5974 5.25 18.3749C5.25 18.0766 5.36853 17.7904 5.5795 17.5794C5.79048 17.3685 6.07663 17.2499 6.375 17.2499Z" fill="#00E676"/>
</svg>
