<svg width="24" height="24" viewBox="0 0 24 24" fill="none" xmlns="http://www.w3.org/2000/svg">
<g clip-path="url(#clip0_418_2464)">
<path d="M1 20.25C1 18.7913 1.57946 17.3924 2.61091 16.3609C3.64236 15.3295 5.04131 14.75 6.5 14.75H17.5C18.9587 14.75 20.3576 15.3295 21.3891 16.3609C22.4205 17.3924 23 18.7913 23 20.25C23 20.9793 22.7103 21.6788 22.1945 22.1945C21.6788 22.7103 20.9793 23 20.25 23H3.75C3.02065 23 2.32118 22.7103 1.80546 22.1945C1.28973 21.6788 1 20.9793 1 20.25Z" stroke="#606060" stroke-width="1.5" stroke-linejoin="round"/>
<path d="M12 9.25C14.2782 9.25 16.125 7.40317 16.125 5.125C16.125 2.84683 14.2782 1 12 1C9.72183 1 7.875 2.84683 7.875 5.125C7.875 7.40317 9.72183 9.25 12 9.25Z" stroke="#606060" stroke-width="1.5"/>
</g>
<defs>
<clipPath id="clip0_418_2464">
<rect width="24" height="24" fill="white"/>
</clipPath>
</defs>
</svg>
